{
  "accessors": [
    {
      "bufferView": 2,
      "componentType": 5126,
      "count": 65532,
      "max": [
        9.361011505126953,
        11.247928619384766,
        6.730246543884277
      ],
      "min": [
        0.009964942932128906,
        1.264409065246582,
        0.0
      ],
      "type": "VEC3"
    },
    {
      "bufferView": 2,
      "byteOffset": 786384,
      "componentType": 5126,
      "count": 65532,
      "max": [
        0.9998843669891357,
        0.9999943971633911,
        0.9999895095825195
      ],
      "min": [
        -0.9999577403068542,
        -0.99994295835495,
        -0.9999905228614807
      ],
      "type": "VEC3"
    },
    {
      "bufferView": 1,
      "componentType": 5126,
      "count": 65532,
      "max": [
        0.9990185499191284,
        0.9989537596702576
      ],
      "min": [
        0.0010501324431970716,
        0.001842796802520752
      ],
      "type": "VEC2"
    },
    {
      "bufferView": 0,
      "componentType": 5125,
      "count": 309108,
      "type": "SCALAR"
    },
    {
      "bufferView": 2,
      "byteOffset": 1572768,
      "componentType": 5126,
      "count": 65532,
      "max": [
        9.365612030029297,
        11.240650177001953,
        6.7076029777526855
      ],
      "min": [
        0.0,
        0.0,
        0.06484043598175049
      ],
      "type": "VEC3"
    },
    {
      "bufferView": 2,
      "byteOffset": 2359152,
      "componentType": 5126,
      "count": 65532,
      "max": [
        0.9999491572380066,
        0.9999943971633911,
        0.9999684691429138
      ],
      "min": [
        -0.999997615814209,
        -0.9999588131904602,
        -0.9999669790267944
      ],
      "type": "VEC3"
    },
    {
      "bufferView": 1,
      "byteOffset": 524256,
      "componentType": 5126,
      "count": 65532,
      "max": [
        0.9990816712379456,
        0.9989601373672485
      ],
      "min": [
        0.0010384892811998725,
        0.0024570822715759277
      ],
      "type": "VEC2"
    },
    {
      "bufferView": 0,
      "byteOffset": 1236432,
      "componentType": 5125,
      "count": 287358,
      "type": "SCALAR"
    },
    {
      "bufferView": 2,
      "byteOffset": 3145536,
      "componentType": 5126,
      "count": 49298,
      "max": [
        9.365612030029297,
        11.242341995239258,
        6.721794605255127
      ],
      "min": [
        0.031835317611694336,
        0.0057239532470703125,
        0.0035599470138549805
      ],
      "type": "VEC3"
    },
    {
      "bufferView": 2,
      "byteOffset": 3737112,
      "componentType": 5126,
      "count": 49298,
      "max": [
        0.9999536275863647,
        0.999996542930603,
        0.9999943971633911
      ],
      "min": [
        -0.9999098181724548,
        -0.9996486306190491,
        -0.9999598860740662
      ],
      "type": "VEC3"
    },
    {
      "bufferView": 1,
      "byteOffset": 1048512,
      "componentType": 5126,
      "count": 49298,
      "max": [
        0.9990720748901367,
        0.9989607930183411
      ],
      "min": [
        0.0010519088245928288,
        0.000945746898651123
      ],
      "type": "VEC2"
    },
    {
      "bufferView": 0,
      "byteOffset": 2385864,
      "componentType": 5125,
      "count": 176052,
      "type": "SCALAR"
    },
    {
      "bufferView": 2,
      "byteOffset": 4328688,
      "componentType": 5126,
      "count": 65532,
      "max": [
        9.33677864074707,
        9.819084167480469,
        6.7463579177856445
      ],
      "min": [
        0.16201329231262207,
        0.0052852630615234375,
        1.5827350616455078
      ],
      "type": "VEC3"
    },
    {
      "bufferView": 2,
      "byteOffset": 5115072,
      "componentType": 5126,
      "count": 65532,
      "max": [
        0.9998154044151306,
        0.9999358654022217,
        0.9999920129776001
      ],
      "min": [
        -0.9999995827674866,
        -0.9998921751976013,
        -0.999948263168335
      ],
      "type": "VEC3"
    },
    {
      "bufferView": 1,
      "byteOffset": 1442896,
      "componentType": 5126,
      "count": 65532,
      "max": [
        0.9985232353210449,
        0.9979143738746643
      ],
      "min": [
        0.0010420908220112324,
        0.002207040786743164
      ],
      "type": "VEC2"
    },
    {
      "bufferView": 0,
      "byteOffset": 3090072,
      "componentType": 5125,
      "count": 304218,
      "type": "SCALAR"
    },
    {
      "bufferView": 2,
      "byteOffset": 5901456,
      "componentType": 5126,
      "count": 43606,
      "max": [
        9.280963897705078,
        11.146690368652344,
        6.744860649108887
      ],
      "min": [
        0.0,
        0.007269859313964844,
        0.11337709426879883
      ],
      "type": "VEC3"
    },
    {
      "bufferView": 2,
      "byteOffset": 6424728,
      "componentType": 5126,
      "count": 43606,
      "max": [
        0.9999954700469971,
        0.999873697757721,
        0.999981701374054
      ],
      "min": [
        -0.999962329864502,
        -0.9999744892120361,
        -0.9999748468399048
      ],
      "type": "VEC3"
    },
    {
      "bufferView": 1,
      "byteOffset": 1967152,
      "componentType": 5126,
      "count": 43606,
      "max": [
        0.9986204504966736,
        0.997909426689148
      ],
      "min": [
        0.0010858369059860706,
        0.0026601552963256836
      ],
      "type": "VEC2"
    },
    {
      "bufferView": 0,
      "byteOffset": 4306944,
      "componentType": 5125,
      "count": 189159,
      "type": "SCALAR"
    }
  ],
  "asset": {
    "extras": {
      "author": "HoangHiepVu (https://sketchfab.com/HoangHiepVu)",
      "license": "CC-BY-4.0 (http://creativecommons.org/licenses/by/4.0/)",
      "source": "https://sketchfab.com/3d-models/louis-xiv-de-france-louvre-paris-a0cc0e7eee384c99838dff2857b8158c",
      "title": "Louis XIV de France, Louvre, Paris"
    },
    "generator": "Sketchfab-12.66.0",
    "version": "2.0"
  },
  "bufferViews": [
    {
      "buffer": 0,
      "byteLength": 5063580,
      "name": "floatBufferViews",
      "target": 34963
    },
    {
      "buffer": 0,
      "byteLength": 2316000,
      "byteOffset": 5063580,
      "byteStride": 8,
      "name": "floatBufferViews",
      "target": 34962
    },
    {
      "buffer": 0,
      "byteLength": 6948000,
      "byteOffset": 7379580,
      "byteStride": 12,
      "name": "floatBufferViews",
      "target": 34962
    }
  ],
  "buffers": [
    {
      "byteLength": 14327580,
      "uri": "scene.bin"
    }
  ],
  "images": [
    {
      "uri": "textures/Model_0_baseColor.jpeg"
    },
    {
      "uri": "textures/Model_1_baseColor.jpeg"
    }
  ],
  "materials": [
    {
      "doubleSided": true,
      "name": "Model_0",
      "pbrMetallicRoughness": {
        "baseColorTexture": {
          "index": 0
        },
        "metallicFactor": 0.0,
        "roughnessFactor": 0.6
      }
    },
    {
      "doubleSided": true,
      "name": "Model_1",
      "pbrMetallicRoughness": {
        "baseColorTexture": {
          "index": 1
        },
        "metallicFactor": 0.0,
        "roughnessFactor": 0.6
      }
    }
  ],
  "meshes": [
    {
      "name": "Object_0",
      "primitives": [
        {
          "attributes": {
            "NORMAL": 1,
            "POSITION": 0,
            "TEXCOORD_0": 2
          },
          "indices": 3,
          "material": 0,
          "mode": 4
        }
      ]
    },
    {
      "name": "Object_1",
      "primitives": [
        {
          "attributes": {
            "NORMAL": 5,
            "POSITION": 4,
            "TEXCOORD_0": 6
          },
          "indices": 7,
          "material": 0,
          "mode": 4
        }
      ]
    },
    {
      "name": "Object_2",
      "primitives": [
        {
          "attributes": {
            "NORMAL": 9,
            "POSITION": 8,
            "TEXCOORD_0": 10
          },
          "indices": 11,
          "material": 0,
          "mode": 4
        }
      ]
    },
    {
      "name": "Object_3",
      "primitives": [
        {
          "attributes": {
            "NORMAL": 13,
            "POSITION": 12,
            "TEXCOORD_0": 14
          },
          "indices": 15,
          "material": 1,
          "mode": 4
        }
      ]
    },
    {
      "name": "Object_4",
      "primitives": [
        {
          "attributes": {
            "NORMAL": 17,
            "POSITION": 16,
            "TEXCOORD_0": 18
          },
          "indices": 19,
          "material": 1,
          "mode": 4
        }
      ]
    }
  ],
  "nodes": [
    {
      "children": [
        1
      ],
      "matrix": [
        1.0,
        0.0,
        0.0,
        0.0,
        0.0,
        -1.0,
        -2.220446049250313e-16,
        0.0,
        0.0,
        2.220446049250313e-16,
        -1.0,
        0.0,
        0.0,
        8.997143745422363,
        -2.250797986984251,
        1.0
      ],
      "name": "Sketchfab_model"
    },
    {
      "children": [
        2,
        3,
        4,
        5,
        6
      ],
      "name": "Model.obj.cleaner.gles"
    },
    {
      "mesh": 0,
      "name": "Object_2"
    },
    {
      "mesh": 1,
      "name": "Object_3"
    },
    {
      "mesh": 2,
      "name": "Object_4"
    },
    {
      "mesh": 3,
      "name": "Object_5"
    },
    {
      "mesh": 4,
      "name": "Object_6"
    }
  ],
  "samplers": [
    {
      "magFilter": 9729,
      "minFilter": 9987,
      "wrapS": 10497,
      "wrapT": 10497
    }
  ],
  "scene": 0,
  "scenes": [
    {
      "name": "Sketchfab_Scene",
      "nodes": [
        0
      ]
    }
  ],
  "textures": [
    {
      "sampler": 0,
      "source": 0
    },
    {
      "sampler": 0,
      "source": 1
    }
  ]
}
