{
  "accessors": [
    {
      "bufferView": 2,
      "componentType": 5126,
      "count": 288,
      "max": [
        2.6407508850097656,
        -2.7676310539245605,
        2.9394030570983887
      ],
      "min": [
        -2.4336469173431396,
        -15.395525932312012,
        -3.042896032333374
      ],
      "type": "VEC3"
    },
    {
      "bufferView": 2,
      "byteOffset": 3456,
      "componentType": 5126,
      "count": 288,
      "max": [
        0.9983765482902527,
        0.9946929812431335,
        0.9703528881072998
      ],
      "min": [
        -0.9630284905433655,
        -0.9999819993972778,
        -0.9635827541351318
      ],
      "type": "VEC3"
    },
    {
      "bufferView": 1,
      "componentType": 5126,
      "count": 288,
      "max": [
        0.9995610117912292,
        0.8601999878883362
      ],
      "min": [
        0.00012199999764561653,
        0.0003760000108741224
      ],
      "type": "VEC2"
    },
    {
      "bufferView": 0,
      "componentType": 5125,
      "count": 288,
      "type": "SCALAR"
    },
    {
      "bufferView": 2,
      "byteOffset": 6912,
      "componentType": 5126,
      "count": 62219,
      "max": [
        2.6407508850097656,
        -1.5955920219421387,
        2.9892759323120117
      ],
      "min": [
        -2.5067028999328613,
        -15.758852005004883,
        -3.042896032333374
      ],
      "type": "VEC3"
    },
    {
      "bufferView": 2,
      "byteOffset": 753540,
      "componentType": 5126,
      "count": 62219,
      "max": [
        1.0,
        0.9848480224609375,
        1.0
      ],
      "min": [
        -1.0,
        -0.9999996423721313,
        -1.0
      ],
      "type": "VEC3"
    },
    {
      "bufferView": 1,
      "byteOffset": 2304,
      "componentType": 5126,
      "count": 62219,
      "max": [
        0.9995989799499512,
        0.9559320211410522
      ],
      "min": [
        0.00012199999764561653,
        0.0003659999929368496
      ],
      "type": "VEC2"
    },
    {
      "bufferView": 0,
      "byteOffset": 1152,
      "componentType": 5125,
      "count": 292056,
      "type": "SCALAR"
    },
    {
      "bufferView": 2,
      "byteOffset": 1500168,
      "componentType": 5126,
      "count": 18,
      "max": [
        2.6407508850097656,
        -1.5955920219421387,
        2.9892759323120117
      ],
      "min": [
        -2.506701946258545,
        -15.622288703918457,
        -3.042896032333374
      ],
      "type": "VEC3"
    },
    {
      "bufferView": 2,
      "byteOffset": 1500384,
      "componentType": 5126,
      "count": 18,
      "max": [
        0.2694031000137329,
        1.0,
        0.6663012504577637
      ],
      "min": [
        -0.6974820494651794,
        -0.922032356262207,
        0.0
      ],
      "type": "VEC3"
    },
    {
      "bufferView": 1,
      "byteOffset": 500056,
      "componentType": 5126,
      "count": 18,
      "max": [
        0.5701659917831421,
        0.3167009949684143
      ],
      "min": [
        0.11657699942588806,
        0.1721460074186325
      ],
      "type": "VEC2"
    },
    {
      "bufferView": 0,
      "byteOffset": 1169376,
      "componentType": 5125,
      "count": 30,
      "type": "SCALAR"
    }
  ],
  "asset": {
    "extras": {
      "author": "artfletch (https://sketchfab.com/artfletch)",
      "license": "CC-BY-4.0 (http://creativecommons.org/licenses/by/4.0/)",
      "source": "https://sketchfab.com/3d-models/bollard-clerkenwell-close-0c81707439834866887225a5892832aa",
      "title": "Bollard Clerkenwell Close"
    },
    "generator": "Sketchfab-14.20.0",
    "version": "2.0"
  },
  "bufferViews": [
    {
      "buffer": 0,
      "byteLength": 1169496,
      "name": "floatBufferViews",
      "target": 34963
    },
    {
      "buffer": 0,
      "byteLength": 500200,
      "byteOffset": 1169496,
      "byteStride": 8,
      "name": "floatBufferViews",
      "target": 34962
    },
    {
      "buffer": 0,
      "byteLength": 1500600,
      "byteOffset": 1669696,
      "byteStride": 12,
      "name": "floatBufferViews",
      "target": 34962
    }
  ],
  "buffers": [
    {
      "byteLength": 3170296,
      "uri": "scene.bin"
    }
  ],
  "extensionsUsed": [
    "KHR_materials_unlit"
  ],
  "images": [
    {
      "uri": "textures/BollardClerkenwellClose01_Model_2_u1_v1_baseColor.jpeg"
    }
  ],
  "materials": [
    {
      "doubleSided": true,
      "extensions": {
        "KHR_materials_unlit": {}
      },
      "name": "BollardClerkenwellClose01_Model_2_u1_v1",
      "pbrMetallicRoughness": {
        "baseColorTexture": {
          "index": 0
        },
        "metallicFactor": 0.0
      }
    }
  ],
  "meshes": [
    {
      "name": "Object_0",
      "primitives": [
        {
          "attributes": {
            "NORMAL": 1,
            "POSITION": 0,
            "TEXCOORD_0": 2
          },
          "indices": 3,
          "material": 0,
          "mode": 4
        }
      ]
    },
    {
      "name": "Object_1",
      "primitives": [
        {
          "attributes": {
            "NORMAL": 5,
            "POSITION": 4,
            "TEXCOORD_0": 6
          },
          "indices": 7,
          "material": 0,
          "mode": 4
        }
      ]
    },
    {
      "name": "Object_2",
      "primitives": [
        {
          "attributes": {
            "NORMAL": 9,
            "POSITION": 8,
            "TEXCOORD_0": 10
          },
          "indices": 11,
          "material": 0,
          "mode": 4
        }
      ]
    }
  ],
  "nodes": [
    {
      "children": [
        1
      ],
      "matrix": [
        1.0,
        0.0,
        0.0,
        0.0,
        0.0,
        -1.0,
        -4.440892098500626e-16,
        0.0,
        0.0,
        4.440892098500626e-16,
        -1.0,
        0.0,
        0.0,
        0.0,
        0.0,
        1.0
      ],
      "name": "Sketchfab_model"
    },
    {
      "children": [
        2,
        3,
        4
      ],
      "name": "BollardClerkenwellClose01.obj.cleaner.materialmerger.gles"
    },
    {
      "mesh": 0,
      "name": "Object_2"
    },
    {
      "mesh": 1,
      "name": "Object_3"
    },
    {
      "mesh": 2,
      "name": "Object_4"
    }
  ],
  "samplers": [
    {
      "magFilter": 9729,
      "minFilter": 9987,
      "wrapS": 10497,
      "wrapT": 10497
    }
  ],
  "scene": 0,
  "scenes": [
    {
      "name": "Sketchfab_Scene",
      "nodes": [
        0
      ]
    }
  ],
  "textures": [
    {
      "sampler": 0,
      "source": 0
    }
  ]
}
